<svg width="30" height="30" viewBox="0 0 30 30" fill="none" xmlns="http://www.w3.org/2000/svg">
<ellipse cx="15" cy="14.6869" rx="15" ry="14.6869" fill="#049EFF"/>
<g clip-path="url(#clip0_1_9)">
<path d="M15 11.7388C13.3458 11.7388 12 13.0553 12 14.6734C12 16.2915 13.3458 17.6081 15 17.6081C16.6542 17.6081 18 16.2915 18 14.6734C18 13.0553 16.6543 11.7388 15 11.7388Z" fill="white"/>
<path d="M21.3878 8.42472C20.3481 7.40769 18.9712 6.84766 17.5105 6.84766H12.4895C11.0288 6.84766 9.65173 7.40769 8.61218 8.42472C7.57251 9.44162 7 10.7887 7 12.2176V17.129C7 18.558 7.57251 19.9051 8.61218 20.922C9.65173 21.939 11.0288 22.4991 12.4895 22.4991H17.5105C18.9712 22.4991 20.3483 21.939 21.3878 20.922C22.4274 19.9051 23 18.558 23 17.129V12.2176C23 10.7887 22.4274 9.44162 21.3878 8.42472V8.42472ZM15 18.8155C12.6652 18.8155 10.7656 16.9573 10.7656 14.6734C10.7656 12.3894 12.6652 10.5312 15 10.5312C17.3348 10.5312 19.2344 12.3894 19.2344 14.6734C19.2344 16.9573 17.3348 18.8155 15 18.8155V18.8155ZM19.6909 10.7332C19.6038 10.8184 19.4828 10.8674 19.3595 10.8674C19.2361 10.8674 19.1154 10.8184 19.0282 10.7332C18.9407 10.6478 18.8907 10.5296 18.8907 10.4088C18.8907 10.2881 18.9407 10.1698 19.0282 10.0845C19.1154 9.99915 19.236 9.95031 19.3595 9.95031C19.4828 9.95031 19.6038 9.99915 19.6909 10.0845C19.7782 10.1698 19.8282 10.2881 19.8282 10.4088C19.8282 10.5295 19.7782 10.6478 19.6909 10.7332Z" fill="white"/>
</g>
<defs>
<clipPath id="clip0_1_9">
<rect width="16" height="15.6514" fill="white" transform="translate(7 6.84766)"/>
</clipPath>
</defs>
</svg>
