<svg width="19" height="19" viewBox="0 0 19 19" fill="none" xmlns="http://www.w3.org/2000/svg">
<path d="M0 8.91513H4.60836C4.52958 12.2737 3.57699 12.655 2.38057 12.7638L1.91919 12.821V16.5141L2.451 16.4856C4.01332 16.3977 5.74059 16.116 6.89297 14.6934C7.90314 13.4463 8.34848 11.4089 8.34848 8.28132V2.48584H0V8.91513Z" fill="#F07A25"/>
<path d="M10.6515 2.48584V8.91513H15.1983C15.1195 12.2737 14.1977 12.655 13.0013 12.7638L12.5707 12.821V16.5141L13.0718 16.4856C14.6341 16.3977 16.3768 16.116 17.5292 14.6934C18.5392 13.4463 18.9999 11.4089 18.9999 8.28132V2.48584H10.6515Z" fill="#F07A25"/>
</svg>
