<svg width="67" height="67" viewBox="0 0 67 67" fill="none" xmlns="http://www.w3.org/2000/svg">
<circle cx="33.5" cy="33.5" r="33.5" fill="#F4F7FF"/>
<path d="M42.8231 23.1224C42.8231 22.4186 42.5484 21.756 42.0506 21.2582L39.5649 18.7725C39.074 18.2815 38.3772 18 37.6836 18H37.5326V23.2734H42.8231L42.8231 23.1224Z" fill="#5A73E5"/>
<path d="M36.051 36.1369C36.2192 35.6262 36.5128 35.1507 36.8956 34.7654L42.8465 28.8384V25.0312H36.6707C36.1849 25.0312 35.8203 24.6381 35.8203 24.1523V18H22.6367C21.1828 18 20 19.1828 20 20.6367V45.3633C20 46.8172 21.1828 48 22.6367 48H40.1863C41.6403 48 42.8465 46.8172 42.8465 45.3633V38.8037L41.8806 39.7461C41.4893 40.134 41.0309 40.4164 40.5142 40.5889L37.7196 41.5219L37.2938 41.5451C36.59 41.5451 35.924 41.2027 35.5103 40.6293C35.1 40.0586 34.9885 39.3187 35.2116 38.6501L36.051 36.1369ZM24.3945 33.8203H33.1551C33.6409 33.8203 34.034 34.2134 34.034 34.6992C34.034 35.185 33.6409 35.5781 33.1551 35.5781H24.3945C23.9087 35.5781 23.5156 35.185 23.5156 34.6992C23.5156 34.2134 23.9087 33.8203 24.3945 33.8203ZM23.5156 31.1836C23.5156 30.6978 23.9087 30.3047 24.3945 30.3047H33.1551C33.6409 30.3047 34.034 30.6978 34.034 31.1836C34.034 31.6694 33.6409 32.0625 33.1551 32.0625H24.3945C23.9087 32.0625 23.5156 31.6694 23.5156 31.1836ZM23.5156 38.2148C23.5156 37.729 23.9087 37.3359 24.3945 37.3359H33.1551C33.6409 37.3359 34.034 37.729 34.034 38.2148C34.034 38.7006 33.6409 39.0938 33.1551 39.0938H24.3945C23.9087 39.0938 23.5156 38.7006 23.5156 38.2148ZM36.6707 42.6094C37.1565 42.6094 37.5496 43.0025 37.5496 43.4883C37.5496 43.9741 37.1565 44.3672 36.6707 44.3672H31.3972C30.9114 44.3672 30.5183 43.9741 30.5183 43.4883C30.5183 43.0025 30.9114 42.6094 31.3972 42.6094H36.6707ZM24.3945 28.5469C23.9087 28.5469 23.5156 28.1538 23.5156 27.668C23.5156 27.1822 23.9087 26.7891 24.3945 26.7891H36.6707C37.1565 26.7891 37.5496 27.1822 37.5496 27.668C37.5496 28.1538 37.1565 28.5469 36.6707 28.5469H24.3945Z" fill="#5A73E5"/>
<path d="M37.6432 36.9146L36.8786 39.2086C36.764 39.5522 37.091 39.8791 37.4346 39.7643L39.7273 38.9986L37.6432 36.9146Z" fill="#5A73E5"/>
<path d="M44.4693 29.6782L38.6809 35.4666L41.1773 37.963C42.4856 36.6545 45.0312 34.1086 46.9654 32.1743L44.4693 29.6782Z" fill="#5A73E5"/>
<path d="M49.4835 27.1573C49.1745 26.8466 48.7196 26.6689 48.2372 26.6689C47.7548 26.6689 47.2999 26.8466 46.9892 27.1582L45.712 28.4354L48.208 30.9314C48.9072 30.2321 49.3905 29.7488 49.4853 29.6541C50.1718 28.9665 50.1718 27.8465 49.4835 27.1573Z" fill="#5A73E5"/>
<path d="M49.4854 29.6549C49.4854 29.6549 49.4854 29.6548 49.4855 29.6548C49.488 29.6522 49.4891 29.6511 49.4912 29.649C49.4891 29.6512 49.488 29.6523 49.4854 29.6549Z" fill="black"/>
<path d="M49.4912 29.6498C49.4942 29.6469 49.4976 29.6434 49.4994 29.6416C49.4976 29.6435 49.4942 29.6469 49.4912 29.6498Z" fill="black"/>
<path d="M49.4986 29.6416C49.505 29.6352 49.5051 29.635 49.4986 29.6416V29.6416Z" fill="#F59614"/>
</svg>
