<svg width="60" height="12" viewBox="0 0 60 12" fill="none" xmlns="http://www.w3.org/2000/svg">
<path d="M7.293 4.656C7.293 5.11533 7.18467 5.54867 6.968 5.956C6.75133 6.36333 6.40467 6.697 5.928 6.957C5.45133 7.20833 4.84033 7.334 4.095 7.334H2.457V11H0.975V1.965H4.095C4.78833 1.965 5.37333 2.08633 5.85 2.329C6.33533 2.563 6.695 2.88367 6.929 3.291C7.17167 3.69833 7.293 4.15333 7.293 4.656ZM4.095 6.125C4.65833 6.125 5.07867 5.99933 5.356 5.748C5.63333 5.488 5.772 5.124 5.772 4.656C5.772 3.668 5.213 3.174 4.095 3.174H2.457V6.125H4.095ZM8.21245 7.386C8.21245 6.66667 8.35978 6.02967 8.65445 5.475C8.95778 4.92033 9.36511 4.49133 9.87645 4.188C10.3964 3.876 10.9684 3.72 11.5924 3.72C12.1558 3.72 12.6454 3.83267 13.0614 4.058C13.4861 4.27467 13.8241 4.54767 14.0754 4.877V3.837H15.5704V11H14.0754V9.934C13.8241 10.272 13.4818 10.5537 13.0484 10.779C12.6151 11.0043 12.1211 11.117 11.5664 11.117C10.9511 11.117 10.3878 10.961 9.87645 10.649C9.36511 10.3283 8.95778 9.88633 8.65445 9.323C8.35978 8.751 8.21245 8.10533 8.21245 7.386ZM14.0754 7.412C14.0754 6.918 13.9714 6.489 13.7634 6.125C13.5641 5.761 13.2998 5.48367 12.9704 5.293C12.6411 5.10233 12.2858 5.007 11.9044 5.007C11.5231 5.007 11.1678 5.10233 10.8384 5.293C10.5091 5.475 10.2404 5.748 10.0324 6.112C9.83311 6.46733 9.73345 6.892 9.73345 7.386C9.73345 7.88 9.83311 8.31333 10.0324 8.686C10.2404 9.05867 10.5091 9.34467 10.8384 9.544C11.1764 9.73467 11.5318 9.83 11.9044 9.83C12.2858 9.83 12.6411 9.73467 12.9704 9.544C13.2998 9.35333 13.5641 9.076 13.7634 8.712C13.9714 8.33933 14.0754 7.906 14.0754 7.412ZM18.271 2.888C18.0023 2.888 17.777 2.797 17.595 2.615C17.413 2.433 17.322 2.20767 17.322 1.939C17.322 1.67033 17.413 1.445 17.595 1.263C17.777 1.081 18.0023 0.989999 18.271 0.989999C18.531 0.989999 18.752 1.081 18.934 1.263C19.116 1.445 19.207 1.67033 19.207 1.939C19.207 2.20767 19.116 2.433 18.934 2.615C18.752 2.797 18.531 2.888 18.271 2.888ZM18.999 3.837V11H17.517V3.837H18.999ZM23.5447 11.117C22.9814 11.117 22.4744 11.0173 22.0237 10.818C21.5817 10.61 21.2307 10.3327 20.9707 9.986C20.7107 9.63067 20.5721 9.23633 20.5547 8.803H22.0887C22.1147 9.10633 22.2577 9.362 22.5177 9.57C22.7864 9.76933 23.1201 9.869 23.5187 9.869C23.9347 9.869 24.2554 9.791 24.4807 9.635C24.7147 9.47033 24.8317 9.26233 24.8317 9.011C24.8317 8.74233 24.7017 8.543 24.4417 8.413C24.1904 8.283 23.7874 8.14 23.2327 7.984C22.6954 7.83667 22.2577 7.69367 21.9197 7.555C21.5817 7.41633 21.2871 7.204 21.0357 6.918C20.7931 6.632 20.6717 6.255 20.6717 5.787C20.6717 5.40567 20.7844 5.059 21.0097 4.747C21.2351 4.42633 21.5557 4.175 21.9717 3.993C22.3964 3.811 22.8817 3.72 23.4277 3.72C24.2424 3.72 24.8967 3.928 25.3907 4.344C25.8934 4.75133 26.1621 5.31033 26.1967 6.021H24.7147C24.6887 5.70033 24.5587 5.44467 24.3247 5.254C24.0907 5.06333 23.7744 4.968 23.3757 4.968C22.9857 4.968 22.6867 5.04167 22.4787 5.189C22.2707 5.33633 22.1667 5.53133 22.1667 5.774C22.1667 5.96467 22.2361 6.125 22.3747 6.255C22.5134 6.385 22.6824 6.489 22.8817 6.567C23.0811 6.63633 23.3757 6.72733 23.7657 6.84C24.2857 6.97867 24.7104 7.12167 25.0397 7.269C25.3777 7.40767 25.6681 7.61567 25.9107 7.893C26.1534 8.17033 26.2791 8.53867 26.2877 8.998C26.2877 9.40533 26.1751 9.76933 25.9497 10.09C25.7244 10.4107 25.4037 10.662 24.9877 10.844C24.5804 11.026 24.0994 11.117 23.5447 11.117ZM37.805 4.565C37.571 4.11433 37.246 3.77633 36.83 3.551C36.414 3.317 35.933 3.2 35.387 3.2C34.789 3.2 34.256 3.33433 33.788 3.603C33.32 3.87167 32.9517 4.253 32.683 4.747C32.423 5.241 32.293 5.813 32.293 6.463C32.293 7.113 32.423 7.68933 32.683 8.192C32.9517 8.686 33.32 9.06733 33.788 9.336C34.256 9.60467 34.789 9.739 35.387 9.739C36.193 9.739 36.8473 9.51367 37.35 9.063C37.8527 8.61233 38.1603 8.00133 38.273 7.23H34.88V6.047H39.859V7.204C39.7637 7.906 39.5123 8.55167 39.105 9.141C38.7063 9.73033 38.182 10.2027 37.532 10.558C36.8907 10.9047 36.1757 11.078 35.387 11.078C34.5377 11.078 33.762 10.883 33.06 10.493C32.358 10.0943 31.799 9.544 31.383 8.842C30.9757 8.14 30.772 7.347 30.772 6.463C30.772 5.579 30.9757 4.786 31.383 4.084C31.799 3.382 32.358 2.836 33.06 2.446C33.7707 2.04733 34.5463 1.848 35.387 1.848C36.349 1.848 37.2027 2.08633 37.948 2.563C38.702 3.031 39.248 3.69833 39.586 4.565H37.805ZM44.4277 11.117C43.7517 11.117 43.1407 10.9653 42.5947 10.662C42.0487 10.35 41.6197 9.91667 41.3077 9.362C40.9957 8.79867 40.8397 8.14867 40.8397 7.412C40.8397 6.684 41 6.03833 41.3207 5.475C41.6414 4.91167 42.079 4.47833 42.6337 4.175C43.1884 3.87167 43.808 3.72 44.4927 3.72C45.1774 3.72 45.797 3.87167 46.3517 4.175C46.9064 4.47833 47.344 4.91167 47.6647 5.475C47.9854 6.03833 48.1457 6.684 48.1457 7.412C48.1457 8.14 47.981 8.78567 47.6517 9.349C47.3224 9.91233 46.8717 10.35 46.2997 10.662C45.7364 10.9653 45.1124 11.117 44.4277 11.117ZM44.4277 9.83C44.809 9.83 45.1644 9.739 45.4937 9.557C45.8317 9.375 46.1047 9.102 46.3127 8.738C46.5207 8.374 46.6247 7.932 46.6247 7.412C46.6247 6.892 46.525 6.45433 46.3257 6.099C46.1264 5.735 45.862 5.462 45.5327 5.28C45.2034 5.098 44.848 5.007 44.4667 5.007C44.0854 5.007 43.73 5.098 43.4007 5.28C43.08 5.462 42.8244 5.735 42.6337 6.099C42.443 6.45433 42.3477 6.892 42.3477 7.412C42.3477 8.18333 42.5427 8.78133 42.9327 9.206C43.3314 9.622 43.8297 9.83 44.4277 9.83ZM51.0927 1.38V11H49.6107V1.38H51.0927ZM52.5445 7.386C52.5445 6.66667 52.6918 6.02967 52.9865 5.475C53.2898 4.92033 53.6971 4.49133 54.2085 4.188C54.7285 3.876 55.3048 3.72 55.9375 3.72C56.4055 3.72 56.8648 3.824 57.3155 4.032C57.7748 4.23133 58.1388 4.5 58.4075 4.838V1.38H59.9025V11H58.4075V9.921C58.1648 10.2677 57.8268 10.5537 57.3935 10.779C56.9688 11.0043 56.4791 11.117 55.9245 11.117C55.3005 11.117 54.7285 10.961 54.2085 10.649C53.6971 10.3283 53.2898 9.88633 52.9865 9.323C52.6918 8.751 52.5445 8.10533 52.5445 7.386ZM58.4075 7.412C58.4075 6.918 58.3035 6.489 58.0955 6.125C57.8961 5.761 57.6318 5.48367 57.3025 5.293C56.9731 5.10233 56.6178 5.007 56.2365 5.007C55.8551 5.007 55.4998 5.10233 55.1705 5.293C54.8411 5.475 54.5725 5.748 54.3645 6.112C54.1651 6.46733 54.0655 6.892 54.0655 7.386C54.0655 7.88 54.1651 8.31333 54.3645 8.686C54.5725 9.05867 54.8411 9.34467 55.1705 9.544C55.5085 9.73467 55.8638 9.83 56.2365 9.83C56.6178 9.83 56.9731 9.73467 57.3025 9.544C57.6318 9.35333 57.8961 9.076 58.0955 8.712C58.3035 8.33933 58.4075 7.906 58.4075 7.412Z" fill="#051441"/>
</svg>
