<svg width="67" height="67" viewBox="0 0 67 67" fill="none" xmlns="http://www.w3.org/2000/svg">
<circle cx="33.5" cy="33.5" r="33.5" fill="#F4F7FF"/>
<path d="M47.4207 20.5827C45.1104 18.2724 42.0386 17 38.7712 17C35.5038 17 32.4319 18.2724 30.1217 20.5827C26.151 24.5534 25.4868 30.5971 28.1278 35.2621L17.9588 45.4315C16.6849 46.7057 16.6849 48.7711 17.9588 50.0445C19.2323 51.3184 21.2977 51.3186 22.5719 50.0445L32.738 39.879C34.557 40.9136 36.6217 41.4644 38.7712 41.4644C42.0385 41.4644 45.1103 40.192 47.4207 37.8817C52.1899 33.1123 52.1899 25.352 47.4207 20.5827ZM45.4986 35.9596C43.7015 37.7566 41.3124 38.7461 38.7712 38.7461C36.2299 38.7461 33.8407 37.7565 32.0438 35.9596C28.3344 32.2501 28.3344 26.2143 32.0438 22.5048C33.8408 20.7078 36.23 19.7183 38.7712 19.7183C41.3125 19.7183 43.7017 20.7079 45.4986 22.5048C49.2079 26.2142 49.2079 32.25 45.4986 35.9596Z" fill="#5A73E5"/>
<path d="M44.5524 24.2578C44.1542 23.8594 43.5082 23.8591 43.1098 24.2576C42.7113 24.6559 42.7113 25.3017 43.1096 25.7002C44.9933 27.5843 44.9933 30.6498 43.1096 32.5338C42.7113 32.9322 42.7113 33.5781 43.1098 33.9764C43.309 34.1755 43.57 34.2751 43.831 34.2751C44.0921 34.2751 44.3531 34.1754 44.5524 33.9762C47.2311 31.2969 47.2311 26.9372 44.5524 24.2578Z" fill="#5A73E5"/>
</svg>
