<svg width="30" height="30" viewBox="0 0 30 30" fill="none" xmlns="http://www.w3.org/2000/svg">
<ellipse cx="15" cy="14.6869" rx="15" ry="14.6869" fill="#049EFF"/>
<path d="M23 9.02803C22.3678 9.2993 21.6942 9.47911 20.9919 9.56641C21.7144 9.14444 22.2658 8.48133 22.5251 7.68207C21.8514 8.07494 21.1077 8.35245 20.3151 8.50731C19.6754 7.84109 18.7638 7.42847 17.7693 7.42847C15.8398 7.42847 14.2864 8.96047 14.2864 10.8386C14.2864 11.1088 14.3098 11.3686 14.3672 11.616C11.4698 11.4778 8.90594 10.1193 7.18362 8.05C6.88294 8.56032 6.70656 9.14444 6.70656 9.77324C6.70656 10.9539 7.32812 12.0006 8.25462 12.6065C7.69469 12.5961 7.14537 12.4371 6.68 12.1866C6.68 12.197 6.68 12.2105 6.68 12.224C6.68 13.8808 7.88806 15.2569 9.47225 15.5739C9.18856 15.6497 8.87937 15.6861 8.5585 15.6861C8.33537 15.6861 8.11012 15.6736 7.89869 15.6279C8.35025 16.978 9.63163 17.9706 11.1553 18.0028C9.9695 18.9102 8.46394 19.4569 6.83406 19.4569C6.54825 19.4569 6.27412 19.4444 6 19.4101C7.54381 20.384 9.37344 20.94 11.3465 20.94C17.7597 20.94 21.266 15.7433 21.266 11.2387C21.266 11.088 21.2607 10.9425 21.2532 10.798C21.9449 10.3179 22.5261 9.71816 23 9.02803Z" fill="white"/>
</svg>
